<svg aria-hidden="true" style="position: absolute; width: 0; height: 0; overflow: hidden;" version="1.1"
    xmlns="http://www.w3.org/2000/svg" xmlns:xlink="http://www.w3.org/1999/xlink">
    <defs>
        <symbol id="icon-logo" viewBox="0 0 128 32">
            <path fill="#f4e041" style="fill: var(--color1, #f4e041)"
                d="M35.42 27.82c0.17 1.224-0.293 2.392-1.132 3.125-0.156 0.138-0.324 0.258-0.504 0.362-0.163 0.093-0.333 0.173-0.513 0.236-0.408 0.145-0.833 0.198-1.251 0.171-0.011 0-0.023 0-0.034-0.003-0.841-0.060-1.652-0.442-2.225-1.052-0.931-0.989-0.904-2.218-0.893-2.475 0-0.124 0.006-0.244 0.020-0.363h-10.114c0.014 0.119 0.020 0.24 0.020 0.363 0.011 0.257 0.038 1.486-0.892 2.475-0.574 0.61-1.384 0.992-2.225 1.052-0.011 0.003-0.023 0.003-0.034 0.003-0.418 0.027-0.843-0.027-1.251-0.171-0.18-0.063-0.35-0.143-0.513-0.236-0.18-0.104-0.349-0.224-0.504-0.361-0.001 0-0.001-0.001-0.001-0.001-0.837-0.734-1.3-1.901-1.13-3.125h-3.643c0.024-0.090 0.050-0.181 0.074-0.271 0.453-1.668 0.907-3.338 1.36-5.006l0.297-0.014 3.48-0.154c0.157-0.007 0.278-0.138 0.271-0.292-0.007-0.156-0.136-0.276-0.296-0.268l-3.597 0.16c0.164-0.609 0.33-1.216 0.494-1.824l3.107 0.255c0.146 0 0.271-0.111 0.282-0.257 0.013-0.154-0.102-0.29-0.258-0.303l-2.98-0.247c0.167-0.616 0.334-1.232 0.501-1.847l0.266 0.102 2.652 1.015c0.033 0.013 0.068 0.020 0.102 0.020 0.113 0 0.221-0.069 0.264-0.18 0.057-0.145-0.016-0.307-0.162-0.363l-2.973-1.138c1.469-5.408 2.939-10.815 4.408-16.222 1.061 3.233 2.12 6.466 3.18 9.697 0.748-0.376 2.492-1.146 4.75-1.111h0.020c2.258-0.035 4.002 0.735 4.75 1.111 1.060-3.231 2.119-6.464 3.18-9.697 1.469 5.406 2.939 10.814 4.408 16.222l-0.266 0.101-2.707 1.037c-0.146 0.056-0.22 0.219-0.163 0.363 0.044 0.111 0.151 0.18 0.265 0.18 0.034 0 0.068-0.007 0.102-0.020l2.918-1.117c0.167 0.615 0.334 1.231 0.501 1.847l-2.98 0.247c-0.156 0.013-0.272 0.149-0.259 0.303 0.013 0.146 0.137 0.257 0.282 0.257h0.024l3.084-0.255c0.164 0.608 0.33 1.215 0.494 1.824l-0.296-0.014-3.302-0.146c-0.16-0.006-0.289 0.112-0.296 0.268-0.007 0.154 0.115 0.285 0.271 0.292l3.779 0.168c0.453 1.668 0.907 3.338 1.36 5.006 0.024 0.090 0.049 0.181 0.074 0.271h-3.643z">
            </path>
            <path fill="#000" opacity="0.87" style="fill: var(--color2, #000)"
                d="M39.431 28.1l-0.074-0.269-0.077-0.282-1.357-4.994-0.295-0.013-0.297-0.014 1.361 5.010h-3.599l0.044 0.319c0.135 0.964-0.154 1.898-0.734 2.572-0.111 0.129-0.232 0.248-0.363 0.355-0.039 0.034-0.081 0.066-0.122 0.096-0.085 0.064-0.173 0.122-0.265 0.174-0.151 0.088-0.312 0.164-0.48 0.223-0.28 0.1-0.572 0.153-0.865 0.161-0.096 0.003-0.193 0-0.289-0.006-0.094-0.006-0.187-0.017-0.28-0.032-0.663-0.105-1.296-0.428-1.772-0.934-0.791-0.841-0.834-1.868-0.816-2.283 0-0.122 0.006-0.23 0.017-0.331l0.037-0.313h-10.75l0.037 0.313c0.011 0.101 0.018 0.209 0.018 0.342 0.017 0.404-0.027 1.431-0.817 2.272-0.476 0.506-1.109 0.829-1.771 0.934-0.093 0.015-0.187 0.027-0.28 0.032-0.096 0.006-0.193 0.009-0.289 0.006-0.295-0.009-0.586-0.062-0.867-0.161-0.167-0.059-0.327-0.133-0.477-0.222h-0.001c-0.092-0.052-0.181-0.111-0.266-0.175-0.041-0.030-0.082-0.062-0.122-0.096-0.13-0.107-0.252-0.226-0.363-0.355-0.579-0.673-0.868-1.608-0.734-2.572l0.044-0.319h-3.598l1.361-5.010-0.297 0.014-0.296 0.013-1.507 5.545h3.7c-0.094 1.649 0.864 3.175 2.366 3.706 1.307 0.463 2.84 0.079 3.813-0.957 0.936-0.996 0.989-2.206 0.969-2.666 0-0.028-0.001-0.056-0.001-0.083h9.509v0.070c-0.021 0.473 0.031 1.682 0.968 2.679 0.7 0.744 1.686 1.151 2.67 1.151 0.387 0 0.774-0.063 1.143-0.194 1.502-0.53 2.459-2.057 2.366-3.706h3.7zM10.683 20.15l-0.288-0.024-0.504 1.861 0.297-0.013 0.296-0.014 0.486-1.786-0.288-0.024zM31.796 0l-0.296 0.899c-0.884 2.697-1.769 5.394-2.653 8.089l-0.426 1.301c-1.078-0.502-2.676-1.031-4.58-0.998h-0.015c-1.91-0.031-3.507 0.495-4.585 0.998l-0.426-1.301c-0.884-2.695-1.768-5.392-2.653-8.089l-0.296-0.899-4.648 17.105 0.266 0.103 0.266 0.101 4.167-15.338c0.786 2.398 1.572 4.794 2.357 7.191l0.631 1.919 0.295-0.149c1.014-0.511 2.645-1.117 4.622-1.080h0.024c1.983-0.034 3.602 0.57 4.617 1.080l0.296 0.149 0.629-1.919c0.785-2.397 1.571-4.793 2.358-7.191l4.168 15.338 0.266-0.101 0.265-0.103-4.648-17.105zM11.068 17.65l-0.523 1.925 0.575 0.048 0.48-1.768-0.533-0.205zM36.593 17.651l-0.265 0.101-0.266 0.102 0.48 1.768 0.288-0.024 0.286-0.022-0.523-1.925zM37.266 20.126l-0.574 0.048 0.486 1.786 0.296 0.014 0.296 0.013-0.504-1.861z">
            </path>
            <path fill="#000" opacity="0.87" style="fill: var(--color2, #000)"
                d="M26.076 18.399c-0.333 0-0.602-0.267-0.602-0.596v-3.614c0-0.33 0.269-0.596 0.602-0.596s0.602 0.267 0.602 0.596v3.614c0 0.328-0.269 0.596-0.602 0.596z">
            </path>
            <path fill="#000" opacity="0.87" style="fill: var(--color2, #000)"
                d="M21.939 17.768c-0.33 0.035-0.628-0.202-0.663-0.53l-0.293-2.728c-0.035-0.327 0.204-0.622 0.535-0.657 0.33-0.035 0.628 0.202 0.663 0.53l0.293 2.728c0.036 0.328-0.204 0.622-0.535 0.657z">
            </path>
            <path fill="#000" opacity="0.87" style="fill: var(--color2, #000)"
                d="M14.615 18.709c-0.042 0.111-0.15 0.18-0.264 0.18-0.034 0-0.069-0.007-0.102-0.020l-7.037-2.694c-0.147-0.056-0.22-0.219-0.163-0.363s0.221-0.216 0.367-0.16l7.037 2.694c0.146 0.056 0.218 0.219 0.161 0.363z">
            </path>
            <path fill="#000" opacity="0.87" style="fill: var(--color2, #000)"
                d="M14.068 20.149c-0.011 0.146-0.136 0.257-0.282 0.257h-0.024l-7.519-0.623c-0.156-0.013-0.272-0.149-0.258-0.303 0.013-0.154 0.147-0.269 0.306-0.255l7.519 0.622c0.156 0.013 0.271 0.149 0.258 0.303z">
            </path>
            <path fill="#000" opacity="0.87" style="fill: var(--color2, #000)"
                d="M14.079 22.083c0.007 0.154-0.113 0.285-0.271 0.292l-7.55 0.335c-0.15 0-0.276-0.118-0.282-0.268-0.007-0.156 0.113-0.286 0.269-0.293l7.537-0.334c0.16-0.009 0.289 0.112 0.296 0.268z">
            </path>
            <path fill="#000" opacity="0.87" style="fill: var(--color2, #000)"
                d="M40.445 16.175l-7.037 2.694c-0.034 0.013-0.068 0.020-0.102 0.020-0.113 0-0.221-0.069-0.265-0.18-0.057-0.145 0.017-0.307 0.163-0.363l7.037-2.694c0.145-0.056 0.31 0.015 0.367 0.16 0.055 0.145-0.017 0.307-0.163 0.363z">
            </path>
            <path fill="#000" opacity="0.87" style="fill: var(--color2, #000)"
                d="M41.67 19.48c0.013 0.154-0.103 0.29-0.259 0.303l-7.543 0.623c-0.145 0-0.269-0.111-0.282-0.257-0.013-0.154 0.103-0.29 0.259-0.303l7.519-0.622c0.156-0.015 0.293 0.101 0.306 0.255z">
            </path>
            <path fill="#000" opacity="0.87" style="fill: var(--color2, #000)"
                d="M41.68 22.442c-0.007 0.15-0.132 0.268-0.283 0.268h-0.013l-7.537-0.335c-0.156-0.007-0.278-0.138-0.271-0.292 0.007-0.156 0.136-0.274 0.296-0.268l7.537 0.334c0.157 0.007 0.278 0.138 0.271 0.293z">
            </path>
            <path fill="#fff" style="fill: var(--color3, #fff)"
                d="M31.903 29.021c0.108 0.309 0.202 0.685 0.232 1.116 0.036 0.507-0.028 0.947-0.117 1.296l-0.115-2.412z">
            </path>
            <path fill="#000" opacity="0.87" style="fill: var(--color2, #000)"
                d="M32.019 31.713c-0.023 0-0.045-0.003-0.068-0.008-0.151-0.037-0.245-0.19-0.207-0.34 0.099-0.4 0.136-0.807 0.108-1.21-0.024-0.349-0.098-0.7-0.217-1.043-0.051-0.146 0.027-0.306 0.176-0.356s0.309 0.027 0.36 0.174c0.136 0.389 0.218 0.788 0.247 1.187 0.033 0.462-0.010 0.926-0.123 1.384-0.033 0.126-0.149 0.212-0.275 0.212z">
            </path>
            <path fill="#fff" style="fill: var(--color3, #fff)"
                d="M33.75 28.91c0.174 0.276 0.324 0.613 0.371 0.999 0.057 0.453-0.045 0.848-0.186 1.162l-0.185-2.161z">
            </path>
            <path fill="#000" opacity="0.87" style="fill: var(--color2, #000)"
                d="M33.934 31.35c-0.038 0-0.077-0.008-0.115-0.024-0.143-0.063-0.208-0.229-0.145-0.37 0.15-0.337 0.204-0.678 0.163-1.015-0.037-0.295-0.147-0.592-0.33-0.885-0.082-0.132-0.041-0.305 0.092-0.386s0.307-0.041 0.39 0.091c0.227 0.362 0.364 0.737 0.411 1.113 0.054 0.438-0.016 0.878-0.207 1.309-0.047 0.105-0.15 0.167-0.259 0.167z">
            </path>
            <path fill="#fff" style="fill: var(--color3, #fff)"
                d="M15.758 29.021c-0.108 0.309-0.202 0.685-0.232 1.116-0.035 0.507 0.029 0.947 0.117 1.296l0.115-2.412z">
            </path>
            <path fill="#000" opacity="0.87" style="fill: var(--color2, #000)"
                d="M15.639 31.714c-0.127 0-0.242-0.086-0.275-0.213-0.113-0.456-0.156-0.922-0.123-1.384 0.027-0.4 0.111-0.798 0.247-1.187 0.051-0.146 0.213-0.225 0.36-0.174s0.227 0.21 0.176 0.356c-0.119 0.342-0.193 0.692-0.217 1.042-0.028 0.403 0.008 0.81 0.108 1.21 0.037 0.15-0.055 0.303-0.207 0.34-0.023 0.007-0.045 0.010-0.068 0.010z">
            </path>
            <path fill="#fff" style="fill: var(--color3, #fff)"
                d="M13.91 28.91c-0.174 0.276-0.324 0.613-0.371 0.999-0.057 0.453 0.046 0.848 0.186 1.162l0.185-2.161z">
            </path>
            <path fill="#000" opacity="0.87" style="fill: var(--color2, #000)"
                d="M13.724 31.35c-0.109 0-0.213-0.063-0.259-0.167-0.191-0.429-0.262-0.87-0.207-1.309 0.047-0.376 0.184-0.749 0.411-1.113 0.082-0.132 0.256-0.173 0.39-0.091s0.174 0.254 0.092 0.386c-0.183 0.292-0.293 0.591-0.33 0.885-0.041 0.337 0.013 0.678 0.163 1.015 0.064 0.142-0.001 0.307-0.145 0.37-0.038 0.017-0.077 0.024-0.115 0.024z">
            </path>
            <path fill="#000" opacity="0.87" style="fill: var(--color2, #000)"
                d="M10.283 28.060h-9.982c-0.166 0-0.301-0.108-0.301-0.239s0.136-0.239 0.301-0.239h9.982c0.166 0 0.301 0.107 0.301 0.239s-0.136 0.239-0.301 0.239z">
            </path>
            <path fill="#000" opacity="0.87" style="fill: var(--color2, #000)"
                d="M46.627 28.11h-9.385c-0.156 0-0.283-0.126-0.283-0.281s0.127-0.281 0.283-0.281h9.385c0.156 0 0.283 0.126 0.283 0.281s-0.126 0.281-0.283 0.281z">
            </path>
            <path fill="#000" opacity="0.87" style="fill: var(--color2, #000)"
                d="M26.713 22.947c-0.204 0.525-0.676 1.093-1.275 1.179-0.554 0.077-1.064-0.216-1.431-0.672-0.035 0.097-0.079 0.196-0.136 0.296-0.092 0.163-0.586 0.968-1.411 0.968h-0.023c-0.785-0.014-1.466-0.722-1.585-1.65-0.018-0.154 0.091-0.295 0.246-0.313 0.153-0.020 0.298 0.090 0.316 0.243 0.091 0.716 0.596 1.152 1.033 1.159h0.011c0.52 0 0.878-0.61 0.918-0.68 0.195-0.348 0.191-0.704 0.156-0.939-0.013-0.043-0.024-0.087-0.035-0.13-0.545 0.063-1.015-0.126-1.102-0.472-0.098-0.393 0.34-0.839 0.979-0.996 0.64-0.157 1.238 0.034 1.336 0.427 0.082 0.324-0.2 0.683-0.659 0.888 0.014 0.052 0.027 0.114 0.038 0.181 0.229 0.755 0.816 1.197 1.269 1.135 0.351-0.051 0.681-0.453 0.824-0.824 0.122-0.314 0.105-0.61 0.070-0.803-0.027-0.153 0.075-0.299 0.228-0.327 0.156-0.027 0.302 0.074 0.33 0.226 0.048 0.264 0.071 0.668-0.098 1.104z">
            </path>
            <path fill="#000" opacity="0.87" style="fill: var(--color2, #000)"
                d="M53.916 22.878c-0.484 0-0.726-0.133-0.726-0.4v-10.988h-3.487c-0.121 0-0.212-0.042-0.272-0.127s-0.091-0.224-0.091-0.418v-0.291c0-0.194 0.030-0.334 0.091-0.418s0.151-0.127 0.272-0.127h8.517c0.133 0 0.224 0.042 0.272 0.127 0.061 0.085 0.091 0.224 0.091 0.418v0.291c0 0.194-0.030 0.334-0.091 0.418-0.048 0.085-0.139 0.127-0.272 0.127h-3.432v10.988c0 0.267-0.242 0.4-0.726 0.4h-0.145zM61.268 22.841c-0.194 0-0.333-0.042-0.418-0.127s-0.127-0.224-0.127-0.418v-11.643c0-0.194 0.042-0.334 0.127-0.418s0.224-0.127 0.418-0.127h6.338c0.133 0 0.224 0.042 0.272 0.127 0.061 0.085 0.091 0.224 0.091 0.418v0.291c0 0.194-0.030 0.334-0.091 0.418-0.049 0.085-0.139 0.127-0.272 0.127h-5.284v4.148h4.74c0.133 0 0.224 0.042 0.272 0.127 0.060 0.085 0.091 0.224 0.091 0.418v0.291c0 0.194-0.030 0.334-0.091 0.418-0.049 0.085-0.139 0.127-0.272 0.127h-4.74v4.439h5.303c0.133 0 0.224 0.042 0.272 0.127 0.060 0.085 0.091 0.224 0.091 0.418v0.291c0 0.194-0.030 0.334-0.091 0.418-0.049 0.085-0.139 0.127-0.272 0.127h-6.356zM73.287 22.95c-0.726 0-1.398-0.085-2.016-0.255s-1.084-0.376-1.398-0.619c-0.23-0.17-0.345-0.321-0.345-0.455 0-0.145 0.079-0.346 0.236-0.6 0.169-0.255 0.303-0.382 0.4-0.382 0.048 0 0.175 0.061 0.381 0.182 0.375 0.206 0.775 0.382 1.199 0.528 0.436 0.145 0.95 0.218 1.543 0.218 0.702 0 1.271-0.194 1.707-0.582 0.448-0.4 0.672-0.922 0.672-1.565 0-0.449-0.121-0.819-0.363-1.11-0.242-0.303-0.539-0.54-0.89-0.71-0.339-0.182-0.835-0.4-1.489-0.655-0.702-0.279-1.259-0.534-1.671-0.764s-0.763-0.57-1.053-1.019c-0.29-0.461-0.436-1.061-0.436-1.801 0-0.655 0.163-1.237 0.49-1.746 0.339-0.509 0.811-0.904 1.416-1.183 0.617-0.291 1.326-0.437 2.125-0.437 0.411 0 0.872 0.061 1.38 0.182 0.508 0.109 0.902 0.261 1.18 0.455 0.242 0.146 0.363 0.303 0.363 0.473 0 0.133-0.079 0.327-0.236 0.582-0.145 0.255-0.26 0.382-0.345 0.382-0.061 0-0.151-0.030-0.272-0.091-0.109-0.061-0.182-0.103-0.218-0.127-0.605-0.315-1.235-0.473-1.889-0.473-0.702 0-1.271 0.182-1.707 0.546-0.424 0.364-0.636 0.867-0.636 1.51 0 0.412 0.103 0.746 0.309 1.001 0.218 0.255 0.46 0.449 0.726 0.582 0.278 0.121 0.757 0.315 1.435 0.582 0.726 0.279 1.32 0.552 1.78 0.819 0.46 0.255 0.847 0.631 1.162 1.128 0.327 0.485 0.49 1.11 0.49 1.874 0 1.092-0.363 1.953-1.089 2.583s-1.707 0.946-2.942 0.946zM82.876 22.878c-0.484 0-0.726-0.133-0.726-0.4v-10.988h-3.487c-0.121 0-0.212-0.042-0.272-0.127s-0.091-0.224-0.091-0.418v-0.291c0-0.194 0.030-0.334 0.091-0.418s0.151-0.127 0.272-0.127h8.517c0.133 0 0.224 0.042 0.272 0.127 0.060 0.085 0.091 0.224 0.091 0.418v0.291c0 0.194-0.030 0.334-0.091 0.418-0.049 0.085-0.139 0.127-0.272 0.127h-3.432v10.988c0 0.267-0.242 0.4-0.726 0.4h-0.145zM92.842 22.878c-0.484 0-0.726-0.133-0.726-0.4v-10.988h-3.487c-0.121 0-0.212-0.042-0.272-0.127s-0.091-0.224-0.091-0.418v-0.291c0-0.194 0.030-0.334 0.091-0.418s0.151-0.127 0.272-0.127h8.517c0.133 0 0.224 0.042 0.272 0.127 0.061 0.085 0.091 0.224 0.091 0.418v0.291c0 0.194-0.030 0.334-0.091 0.418-0.048 0.085-0.139 0.127-0.272 0.127h-3.432v10.988c0 0.267-0.242 0.4-0.726 0.4h-0.145zM98.141 22.878c-0.52 0-0.781-0.103-0.781-0.309 0-0.061 0.018-0.145 0.055-0.255l4.304-11.952c0.073-0.194 0.315-0.291 0.726-0.291h0.527c0.436 0 0.678 0.097 0.726 0.291l4.304 11.97c0.036 0.085 0.055 0.164 0.055 0.236 0 0.206-0.26 0.309-0.781 0.309h-0.145c-0.424 0-0.666-0.097-0.726-0.291l-1.071-2.983h-5.339l-1.035 2.983c-0.060 0.194-0.303 0.291-0.726 0.291h-0.091zM104.841 18.22l-1.907-5.421c-0.060-0.194-0.133-0.546-0.218-1.055h-0.036c-0.097 0.485-0.188 0.837-0.272 1.055l-1.907 5.421h4.34zM112.71 22.95c-0.726 0-1.398-0.085-2.016-0.255s-1.084-0.376-1.398-0.619c-0.23-0.17-0.345-0.321-0.345-0.455 0-0.145 0.079-0.346 0.236-0.6 0.169-0.255 0.303-0.382 0.4-0.382 0.048 0 0.175 0.061 0.381 0.182 0.375 0.206 0.775 0.382 1.199 0.528 0.436 0.145 0.95 0.218 1.543 0.218 0.702 0 1.271-0.194 1.707-0.582 0.448-0.4 0.672-0.922 0.672-1.565 0-0.449-0.121-0.819-0.363-1.11-0.242-0.303-0.539-0.54-0.89-0.71-0.339-0.182-0.835-0.4-1.489-0.655-0.702-0.279-1.259-0.534-1.671-0.764s-0.763-0.57-1.053-1.019c-0.291-0.461-0.436-1.061-0.436-1.801 0-0.655 0.163-1.237 0.49-1.746 0.339-0.509 0.811-0.904 1.416-1.183 0.617-0.291 1.326-0.437 2.125-0.437 0.411 0 0.872 0.061 1.38 0.182 0.508 0.109 0.902 0.261 1.18 0.455 0.242 0.146 0.363 0.303 0.363 0.473 0 0.133-0.079 0.327-0.236 0.582-0.145 0.255-0.26 0.382-0.345 0.382-0.061 0-0.151-0.030-0.272-0.091-0.109-0.061-0.182-0.103-0.218-0.127-0.605-0.315-1.235-0.473-1.888-0.473-0.702 0-1.271 0.182-1.707 0.546-0.424 0.364-0.636 0.867-0.636 1.51 0 0.412 0.103 0.746 0.309 1.001 0.218 0.255 0.46 0.449 0.726 0.582 0.278 0.121 0.757 0.315 1.435 0.582 0.726 0.279 1.32 0.552 1.78 0.819 0.46 0.255 0.847 0.631 1.162 1.128 0.327 0.485 0.49 1.11 0.49 1.874 0 1.092-0.363 1.953-1.090 2.583s-1.707 0.946-2.942 0.946zM119.847 22.878c-0.484 0-0.726-0.133-0.726-0.4v-12.007c0-0.267 0.242-0.4 0.726-0.4h0.145c0.484 0 0.726 0.133 0.726 0.4v5.567h0.073l4.467-5.712c0.133-0.17 0.46-0.255 0.981-0.255h0.181c0.207 0 0.364 0.024 0.473 0.073 0.11 0.036 0.164 0.091 0.164 0.164 0 0.109-0.060 0.23-0.182 0.364l-4.539 5.676 5.502 5.985c0.11 0.121 0.164 0.218 0.164 0.291 0 0.097-0.060 0.164-0.181 0.2-0.122 0.036-0.327 0.055-0.618 0.055h-0.218c-0.267 0-0.479-0.012-0.636-0.036-0.145-0.024-0.266-0.091-0.363-0.2l-5.193-5.858h-0.073v5.694c0 0.267-0.242 0.4-0.726 0.4h-0.145z">
            </path>
        </symbol>
        <symbol id="icon-photo-cover" viewBox="0 0 32 32">
            <path fill="#fff" style="fill: var(--color3, #fff)"
                d="M32 16c0 8.837-7.163 16-16 16s-16-7.163-16-16c0-8.837 7.163-16 16-16s16 7.163 16 16z"></path>
            <path fill="#d0cfcf" style="fill: var(--color4, #d0cfcf)"
                d="M15.978 32c-8.833 0.001-16.013-7.204-15.978-16.032 0.035-8.846 7.188-15.984 16.002-15.968 8.848 0.016 15.972 7.128 15.998 15.971 0.026 8.854-7.146 16.029-16.022 16.029zM5.14 26.311c5.9 6.293 15.962 6.176 21.701 0.004-0.121-0.14-0.236-0.29-0.369-0.423-0.597-0.601-1.305-1.052-2.069-1.393-0.999-0.445-2.028-0.823-3.037-1.246-0.478-0.201-0.956-0.412-1.405-0.669-0.513-0.292-0.845-0.731-0.86-1.358-0.012-0.506-0.028-1.013-0.051-1.519-0.016-0.329 0.074-0.611 0.279-0.876 0.778-1.008 1.184-2.152 1.191-3.43 0.001-0.201 0.085-0.323 0.236-0.442 0.337-0.267 0.637-0.583 0.727-1.018 0.097-0.467 0.166-0.943 0.211-1.419 0.036-0.388-0.006-0.766-0.499-0.806 0.069-0.585 0.16-1.126 0.192-1.669 0.064-1.109-0.056-2.193-0.615-3.184-0.481-0.853-1.207-1.321-2.199-1.359-0.132-0.005-0.267-0.045-0.392-0.089-1.257-0.432-2.556-0.564-3.85-0.306-2.519 0.502-4.027 2.668-3.724 5.246 0.053 0.445 0.137 0.886 0.212 1.363-0.346 0.018-0.549 0.217-0.542 0.546 0.018 0.978 0.036 1.967 0.902 2.658 0.216 0.173 0.272 0.39 0.294 0.645 0.031 0.366 0.073 0.733 0.132 1.096 0.137 0.852 0.634 1.533 1.080 2.24 0.11 0.175 0.2 0.396 0.208 0.599 0.022 0.56 0 1.122-0.012 1.684-0.012 0.563-0.271 0.997-0.731 1.309-0.215 0.146-0.434 0.293-0.671 0.393-0.566 0.241-1.141 0.463-1.717 0.68-1.193 0.449-2.375 0.922-3.435 1.647-0.444 0.304-0.855 0.642-1.186 1.095z">
            </path>
        </symbol>
        <symbol id="icon-success-image" viewBox="0 0 328 290" fill="none">
            <path d="M321.927 267.839H296.084V268.033H321.927V267.839Z" fill="#EBEBEB" />
            <path d="M229.324 269.945H222.543V270.139H229.324V269.945Z" fill="#EBEBEB" />
            <path d="M295.304 260.621H280.33V260.815H295.304V260.621Z" fill="#EBEBEB" />
            <path d="M45.5132 261.926H11.813V262.12H45.5132V261.926Z" fill="#EBEBEB" />
            <path d="M57.405 261.926H52.4658V262.12H57.405V261.926Z" fill="#EBEBEB" />
            <path d="M146.559 265.205H73.4629V265.399H146.559V265.205Z" fill="#EBEBEB" />
            <path
                d="M156.106 25.2336C144.761 37.7827 139.143 54.8775 140.103 71.7391C141.062 88.6008 147.305 104.748 154.904 119.845C161.56 133.07 169.511 148.067 164.065 161.828C161.022 169.521 154.085 175.217 146.415 178.387C138.745 181.557 130.334 182.474 122.039 182.886C107.901 183.593 93.5513 182.948 79.795 186.251C66.0387 189.553 52.4931 197.712 47.1716 210.774C40.906 226.167 48.0221 244.583 60.569 255.515C73.1237 266.448 89.962 271.142 106.48 273.465C129.624 276.713 153.336 275.897 176.198 271.072C194.558 267.194 212.622 260.597 227.603 249.338C242.576 238.079 254.265 221.792 257.472 203.376C260.671 184.961 254.46 164.595 239.806 152.924C233.712 148.067 226.362 144.749 221.017 139.085C215.672 133.42 212.957 123.987 217.92 117.988C221.197 114.025 226.721 112.813 231.84 112.199C257.019 109.208 284.914 114.375 305.974 100.303C318.029 92.245 325.832 78.5071 327.549 64.1475C329.265 49.7879 326.152 34.2472 317.069 22.9647C292.311 -7.75147 186.428 -8.30316 156.106 25.2336Z"
                fill="#E5F7FF" />
            <path
                d="M165.949 290C249.503 290 317.237 286.062 317.237 281.204C317.237 276.346 249.503 272.408 165.949 272.408C82.3951 272.408 14.6611 276.346 14.6611 281.204C14.6611 286.062 82.3951 290 165.949 290Z"
                fill="#E5F7FF" />
            <path d="M153.521 157.896L155.471 146.684L159.302 147.795L153.521 157.896Z" fill="#00BDD3" />
            <path d="M154.808 161.478L165.779 158.323L164.257 154.648L154.808 161.478Z" fill="#00BDD3" />
            <path d="M156.759 157.267L163.009 145.495L167.214 148.409L156.759 157.267Z" fill="#00BDD3" />
            <path
                d="M53.5041 174.921H48.5649C48.3465 174.921 48.1748 174.75 48.1748 174.532C48.1748 174.314 48.3465 174.144 48.5649 174.144H53.5041C53.7226 174.144 53.8942 174.314 53.8942 174.532C53.8942 174.75 53.7226 174.921 53.5041 174.921Z"
                fill="#00BDD3" />
            <path
                d="M45.2802 174.921H20.522C20.3035 174.921 20.1318 174.75 20.1318 174.532C20.1318 174.314 20.3035 174.144 20.522 174.144H45.2724C45.4908 174.144 45.6625 174.314 45.6625 174.532C45.6625 174.75 45.4908 174.921 45.2802 174.921Z"
                fill="#00BDD3" />
            <path
                d="M133.061 219.881C132.967 219.881 132.873 219.85 132.795 219.78C132.639 219.632 132.624 219.391 132.772 219.228L135.081 216.726C135.23 216.571 135.472 216.563 135.635 216.703C135.791 216.85 135.807 217.091 135.659 217.254L133.349 219.757C133.271 219.842 133.17 219.881 133.061 219.881Z"
                fill="#00BDD3" />
            <path
                d="M111.907 239.796C111.767 239.796 111.626 239.718 111.556 239.586C111.463 239.392 111.533 239.159 111.728 239.065C118.961 235.421 130.416 221.792 130.533 221.652C130.673 221.489 130.915 221.466 131.079 221.605C131.243 221.745 131.266 221.986 131.126 222.149C130.65 222.717 119.445 236.035 112.071 239.757C112.032 239.78 111.97 239.796 111.907 239.796Z"
                fill="#00BDD3" />
            <path d="M168.055 235.538L173.626 230.946L159.597 217.689L153.612 222.779L168.055 235.538Z"
                fill="#F6B69E" />
            <path
                d="M178.136 229.182C177.762 228.949 176.997 229.058 176.209 229.275C175.834 229.384 175.444 229.508 175.101 229.633C174.828 229.734 174.578 229.835 174.367 229.92C174.055 230.052 173.829 230.153 173.751 230.192C173.681 230.208 173.634 230.277 173.626 230.355C173.618 230.378 173.634 230.41 173.65 230.433C173.673 230.472 173.712 230.503 173.759 230.511C174.547 230.72 175.358 230.852 176.178 230.915C176.576 230.969 176.989 230.938 177.371 230.829C177.395 230.821 177.41 230.821 177.426 230.814C177.645 230.744 177.863 230.65 178.058 230.534C178.316 230.324 178.456 230.006 178.425 229.671C178.417 229.477 178.316 229.283 178.136 229.182ZM178.058 229.687C178.097 229.912 177.996 230.138 177.808 230.27C177.66 230.394 177.449 230.472 177.176 230.526C176.911 230.581 176.591 230.596 176.224 230.573C175.795 230.557 175.296 230.487 174.742 230.386C174.625 230.363 174.5 230.34 174.375 230.316C175.038 229.998 175.733 229.757 176.451 229.594C176.833 229.508 177.215 229.446 177.606 229.407C177.723 229.407 177.832 229.43 177.933 229.485C178.019 229.531 178.066 229.609 178.058 229.687Z"
                fill="#00BDD3" />
            <path
                d="M175.585 226.26C175.226 226.314 174.898 226.532 174.696 226.827C174.633 226.92 174.579 227.014 174.54 227.122C174.071 228.125 174.313 229.64 174.368 229.92C174.376 229.943 174.376 229.951 174.376 229.959C174.383 230.021 174.43 230.075 174.493 230.091C174.524 230.106 174.563 230.114 174.602 230.098C174.625 230.098 174.649 230.083 174.672 230.06C174.805 229.951 174.945 229.803 175.101 229.624C175.328 229.36 175.562 229.042 175.765 228.692C176.248 227.907 176.592 227.021 176.381 226.563C176.295 226.384 176.092 226.174 175.585 226.26ZM176.053 226.718C176.186 227.021 175.928 227.713 175.531 228.397C175.273 228.832 174.977 229.252 174.68 229.562C174.618 229.073 174.555 228.14 174.797 227.449C174.844 227.293 174.914 227.146 175 227.029C175.133 226.843 175.32 226.695 175.538 226.633L175.648 226.617C175.975 226.563 176.038 226.68 176.053 226.718Z"
                fill="#00BDD3" />
            <path
                d="M172.901 230.62L165.91 234.132C165.629 234.264 165.496 234.575 165.582 234.862L167.642 241.374C167.868 242.011 168.57 242.345 169.218 242.12C169.257 242.104 169.304 242.089 169.343 242.073C181.32 237.885 184.988 234.917 186.244 234.241C189.81 232.306 187.804 229.788 186.478 230.099C180.509 231.521 178.503 231.156 175.921 230.487C174.54 230.278 173.322 230.41 172.901 230.62Z"
                fill="#0E1F3D" />
            <path opacity="0.2" d="M159.597 217.697L166.705 223.967L160.713 229.057L153.612 222.786L159.597 217.697Z"
                fill="black" />
            <path d="M157.388 229.011L166.323 220.806L164.356 217.363L154.025 226.198L157.388 229.011Z"
                fill="#00BDD3" />
            <path opacity="0.5" d="M157.388 229.011L166.323 220.806L164.356 217.363L154.025 226.198L157.388 229.011Z"
                fill="white" />
            <path
                d="M162.952 218.567L161.759 219.593L159.972 221.123L158.903 222.025L155.789 224.69L155.189 225.195C155.189 225.195 142.462 218.054 135.377 211.954C130.524 207.774 130.087 206.22 129.58 206.609C122.737 211.791 102.481 229.71 91.003 239.034C90.6285 239.073 90.2617 239.112 89.8794 239.135C83.7464 239.586 78.9243 238.91 75.179 237.488C75.14 232.53 79.4003 220.953 79.7514 219.834C79.7514 219.834 96.6912 203.065 124.134 188.892C124.407 188.752 124.688 188.643 124.961 188.527C125.32 188.372 125.671 188.224 126.037 188.092C127.473 187.548 128.878 187.214 130.243 187.144C131.468 187.082 132.662 187.299 133.809 187.703C134.457 187.929 135.096 188.208 135.713 188.535C136.259 188.807 136.79 189.125 137.305 189.452C138.155 189.988 138.974 190.586 139.747 191.177C141.495 192.521 154.752 209.53 161.883 217.378C161.883 217.386 161.883 217.386 161.883 217.386C162.258 217.829 162.617 218.217 162.952 218.567Z"
                fill="#00BDD3" />
            <g opacity="0.1">
                <g opacity="0.1">
                    <g opacity="0.1">
                        <g opacity="0.1">
                            <path opacity="0.1"
                                d="M162.952 218.567L161.759 219.593L159.972 221.123L158.903 222.025L155.789 224.69L155.189 225.195C155.189 225.195 142.462 218.054 135.377 211.954C130.524 207.774 130.087 206.22 129.58 206.609C122.737 211.791 102.481 229.71 91.003 239.034C90.6285 239.073 90.2617 239.112 89.8794 239.135C83.7464 239.586 78.9243 238.91 75.179 237.488C75.14 232.53 79.4003 220.953 79.7514 219.834C79.7514 219.834 96.6912 203.065 124.134 188.892C124.407 188.752 124.688 188.643 124.961 188.527C125.32 188.372 125.671 188.224 126.037 188.092C127.473 187.548 128.878 187.214 130.243 187.144C131.468 187.082 132.662 187.299 133.809 187.703C134.457 187.929 135.096 188.208 135.713 188.535C136.259 188.807 136.79 189.125 137.305 189.452C138.155 189.988 138.974 190.586 139.747 191.177C141.495 192.521 154.752 209.53 161.883 217.378C161.883 217.386 161.883 217.386 161.883 217.386C162.258 217.829 162.617 218.217 162.952 218.567Z"
                                fill="black" />
                        </g>
                    </g>
                </g>
            </g>
            <path
                d="M72.5581 146.987C73.6271 151.828 74.7507 158.892 71.4189 162.21C75.5544 169.467 80.5248 176.219 86.2286 182.335C93.5398 169.677 86.6109 161.852 86.6109 161.852C81.1334 160.687 81.2192 158.488 82.0775 154.696L72.5581 146.987Z"
                fill="#F6B69E" />
            <path
                d="M68.0322 162.823C68.438 161.51 69.2729 160.375 70.4043 159.591C71.4967 158.751 82.8575 158.627 85.8147 159.591C87.5392 160.134 89.0061 161.284 89.9424 162.831L68.0322 162.823Z"
                fill="#00BDD3" />
            <path
                d="M120.444 182.094L123.385 180.757L123.534 185.528C123.534 185.528 122.16 186.748 120.654 187.215C119.211 187.658 117.838 186.337 118.196 184.876C118.485 183.664 119.312 182.638 120.444 182.094Z"
                fill="#F6B69E" />
            <path
                d="M127.137 182.109L126.981 183.858C126.942 184.402 126.544 184.852 126.014 184.969L123.501 185.528L123.353 180.757L125.905 180.796C126.583 180.789 127.13 181.325 127.137 182.001C127.137 182.04 127.137 182.071 127.137 182.109Z"
                fill="#F6B69E" />
            <path
                d="M83.1385 195.668C87.5548 197.836 92.97 199.08 98.2836 198.186C104.541 197.137 115.442 190.882 120.186 187.292L118.586 184.922C116.222 185.427 96.9025 195.202 84.4181 186.36C82.0929 184.712 72.9637 177.929 69.7333 178.069C64.4976 178.302 64.9502 183.764 67.1974 186.041C69.8425 188.698 79.5258 193.897 83.1385 195.668Z"
                fill="#F6B69E" />
            <g opacity="0.2">
                <path opacity="0.2"
                    d="M126.982 183.858C126.935 184.394 126.545 184.852 126.015 184.969L123.518 185.528V185.536C123.518 185.536 122.145 186.756 120.646 187.222C120.49 187.269 120.334 187.3 120.186 187.3L120.178 187.308C115.434 190.897 104.541 197.145 98.2836 198.194C92.97 199.08 87.5548 197.844 83.1385 195.668C79.5258 193.897 69.8269 188.698 67.1974 186.041C64.9502 183.764 64.4976 178.31 69.7333 178.069C72.9559 177.929 82.0929 184.712 84.4181 186.36C96.3251 194.79 114.443 186.29 118.15 185.046C118.157 184.992 118.165 184.93 118.181 184.875C118.329 184.269 118.602 183.71 118.992 183.228C119.367 182.754 119.866 182.358 120.428 182.086L123.338 180.765L123.37 180.757L125.898 180.788C126.569 180.781 127.123 181.324 127.123 182C127.123 182.032 127.123 182.063 127.123 182.101L126.982 183.858Z"
                    fill="black" />
                <path opacity="0.2" d="M123.376 180.757L123.353 180.765V180.757H123.376Z" fill="black" />
            </g>
            <path
                d="M99.5009 170.632C106.125 185.17 90.7618 189.32 97.7999 213.159L64.404 213.96C64.6303 201.185 69.1871 203.928 63.179 179.91C62.6718 177.874 61.8213 172.039 63.9983 166.724C64.8488 164.657 66.3547 162.901 68.3288 161.836C70.7945 160.507 81.6559 161.549 86.6107 161.875C91.979 161.129 98.5177 168.814 99.5009 170.632Z"
                fill="#00BDD3" />
            <path opacity="0.5"
                d="M99.5009 170.632C106.125 185.17 90.7618 189.32 97.7999 213.159L64.404 213.96C64.6303 201.185 69.1871 203.928 63.179 179.91C62.6718 177.874 61.8213 172.039 63.9983 166.724C64.8488 164.657 66.3547 162.901 68.3288 161.836C70.7945 160.507 81.6559 161.549 86.6107 161.875C91.979 161.129 98.5177 168.814 99.5009 170.632Z"
                fill="white" />
            <path
                d="M93.1184 141.789C93.0247 142.426 93.2822 142.946 93.6802 143.001C94.0781 143.055 94.4839 142.612 94.5697 141.998C94.6633 141.385 94.4058 140.841 94.0079 140.786C93.61 140.74 93.2042 141.182 93.1184 141.789Z"
                fill="#0E1F3D" />
            <path d="M93.8276 140.802L95.357 140.592C95.357 140.584 94.4363 141.625 93.8276 140.802Z" fill="#0E1F3D" />
            <path
                d="M93.2194 142.628C93.2194 142.628 93.8749 145.41 94.8424 146.832C93.9217 147.469 92.5952 146.925 92.5952 146.925L93.2194 142.628Z"
                fill="#A02724" />
            <path
                d="M95.3262 137.516C95.4433 137.469 95.5291 137.36 95.5525 137.236C95.5837 137.034 95.4432 136.855 95.2482 136.824C94.0934 136.621 92.9074 136.995 92.0803 137.819C91.932 137.959 91.9242 138.184 92.0568 138.332C92.1973 138.48 92.4236 138.487 92.5718 138.355C92.5874 138.34 92.603 138.324 92.6186 138.301C93.2897 137.663 94.226 137.383 95.1389 137.547C95.2014 137.554 95.2716 137.547 95.3262 137.516Z"
                fill="#0E1F3D" />
            <path
                d="M72.9087 136.761C72.2767 144.337 71.8475 147.523 75.0935 151.929C79.978 158.557 89.4662 157.687 92.3454 150.445C94.9515 143.933 95.5523 132.643 88.6079 128.587C83.6609 125.665 77.2782 127.289 74.3366 132.208C73.5095 133.591 73.0179 135.153 72.9087 136.761Z"
                fill="#F6B69E" />
            <path
                d="M92.5171 149.987C91.9397 149.505 91.5028 148.868 91.2531 148.137C91.2297 148.06 91.2765 147.974 91.3623 147.943C91.4403 147.92 91.5262 147.966 91.5496 148.052C91.7759 148.681 92.1504 149.233 92.6342 149.676L92.5171 149.987Z"
                fill="#0E1F3D" />
            <path
                d="M67.4857 126.908C64.5831 130.824 63.2644 131.842 66.8537 142.262C68.2972 146.45 72.4873 151.998 74.5238 152.503C78.1755 153.42 81.7258 150.864 84.4724 148.292C86.8756 146.038 89.1774 143.606 90.6366 140.661C92.0957 137.716 92.6341 134.189 91.4324 131.135C90.1216 127.817 85.4945 124.856 82.0301 124.126C77.9571 123.271 69.8968 123.652 67.4857 126.908Z"
                fill="#0E1F3D" />
            <path d="M90.2375 141.307C90.2375 141.307 91.1503 142.869 89.9956 144.034L90.019 141.952L90.2375 141.307Z"
                fill="#0E1F3D" />
            <path d="M90.223 141.307C90.223 141.307 90.5585 143.7 88.5454 144.594L89.63 142.006L90.223 141.307Z"
                fill="#0E1F3D" />
            <path d="M76.8261 151.617C76.8261 151.617 74.6101 152.62 74.93 154.788L76.5452 152.495L76.8261 151.617Z"
                fill="#0E1F3D" />
            <path d="M76.9122 151.664C76.9122 151.664 75.2268 153.405 76.3348 155.308L76.9824 152.581L76.9122 151.664Z"
                fill="#0E1F3D" />
            <path
                d="M93.2737 138.183C94.0618 137.375 94.8655 136.551 95.4429 135.58C96.0281 134.609 96.3792 133.459 96.2076 132.348C95.9813 130.902 94.8889 129.713 93.6171 128.983C92.3452 128.26 90.8861 127.934 89.4504 127.615C88.7481 127.46 87.96 127.312 87.3436 127.685C86.7428 128.043 86.4853 128.796 86.5243 129.488C86.5556 130.18 86.8364 130.832 87.0861 131.477C88.0771 134.003 88.7013 136.598 89.1773 139.255C89.4192 140.6 89.2319 141.485 90.5662 140.973C91.4557 140.623 92.5949 138.882 93.2737 138.183Z"
                fill="#0E1F3D" />
            <path
                d="M82.7722 141.921C82.6942 143.677 83.3106 145.386 84.4966 146.684C86.0806 148.401 88.0937 147.275 88.6711 145.145C89.2017 143.234 88.9988 140.04 86.9233 139.123C84.8478 138.199 82.8815 139.784 82.7722 141.921Z"
                fill="#F6B69E" />
            <path d="M171.271 239.034L177.294 233.183L165.637 218.583L158.349 222.864L171.271 239.034Z"
                fill="#F6B69E" />
            <path
                d="M183.443 231.381C182.772 231.148 181.398 231.894 180.361 232.554C180.095 232.717 179.861 232.88 179.658 233.02L179.643 233.028C179.604 233.059 179.572 233.082 179.541 233.106C179.307 233.269 179.136 233.393 179.073 233.44C178.995 233.479 178.964 233.556 178.979 233.634C179.003 233.712 179.073 233.766 179.151 233.774C179.869 233.805 180.587 233.782 181.305 233.704C181.469 233.688 181.625 233.673 181.781 233.65C182.303 233.611 182.803 233.44 183.232 233.152C183.388 233.051 183.536 232.943 183.661 232.818C183.887 232.546 183.965 232.173 183.856 231.831C183.809 231.637 183.653 231.466 183.443 231.381ZM183.489 231.94C183.568 232.165 183.528 232.422 183.365 232.608C183.162 232.857 182.756 233.059 182.179 233.199C181.734 233.308 181.195 233.385 180.563 233.417C180.314 233.424 180.048 233.44 179.775 233.44C179.861 233.37 179.947 233.308 180.041 233.246C180.103 233.199 180.165 233.16 180.228 233.113C181.063 232.531 181.984 232.072 182.959 231.754C183.076 231.723 183.201 231.723 183.326 231.761C183.404 231.785 183.466 231.855 183.489 231.94Z"
                fill="#00BDD3" />
            <path
                d="M180.102 228.902C179.735 229.042 179.447 229.337 179.306 229.695C178.815 230.891 179.54 232.733 179.665 233.02C179.665 233.028 179.665 233.028 179.673 233.028C179.673 233.044 179.673 233.051 179.681 233.051C179.712 233.114 179.766 233.16 179.837 233.168C179.876 233.176 179.915 233.168 179.954 233.152C179.977 233.145 180.008 233.121 180.016 233.106C180.024 233.09 180.032 233.09 180.04 233.082C180.149 232.943 180.266 232.764 180.367 232.554C180.945 231.474 181.483 229.671 181.007 229.05C180.867 228.871 180.609 228.7 180.102 228.902ZM179.907 232.577C179.696 231.964 179.322 230.658 179.665 229.85C179.759 229.625 179.923 229.43 180.141 229.314L180.25 229.259C180.586 229.127 180.672 229.244 180.703 229.283C181.038 229.733 180.516 231.575 179.907 232.577Z"
                fill="#00BDD3" />
            <path opacity="0.2" d="M165.021 217.689L170.514 224.69L163.086 228.808L157.507 221.994L165.021 217.689Z"
                fill="black" />
            <path
                d="M64.0991 211.426L63.3266 214.441C63.2096 214.682 63.4983 214.908 63.8806 214.9L98.2753 214.092C98.5796 214.076 98.8214 213.928 98.8371 213.742L97.9787 210.579C98.0022 210.377 97.729 210.206 97.4013 210.214L64.6531 211.17C64.4346 211.147 64.224 211.248 64.0991 211.426Z"
                fill="#0E1F3D" />
            <path
                d="M94.7025 214.449L93.7974 214.542C93.618 214.534 93.4697 214.488 93.4697 214.379L93.4541 210.486C93.4541 210.377 93.6024 210.268 93.7818 210.245L94.6869 210.144C94.8664 210.152 95.0147 210.199 95.0147 210.315L95.0303 214.208C95.0225 214.317 94.882 214.426 94.7025 214.449Z"
                fill="#00BDD3" />
            <path
                d="M82.3896 214.605L81.4844 214.698C81.305 214.69 81.1645 214.644 81.1567 214.535L81.1489 210.642C81.1489 210.533 81.2972 210.424 81.4766 210.401L82.374 210.3C82.5534 210.308 82.7017 210.354 82.7017 210.471L82.7173 214.364C82.7173 214.488 82.569 214.581 82.3896 214.605Z"
                fill="#00BDD3" />
            <path
                d="M82.3896 214.605L81.4844 214.698C81.305 214.69 81.1645 214.644 81.1567 214.535L81.1489 210.642C81.1489 210.533 81.2972 210.424 81.4766 210.401L82.374 210.3C82.5534 210.308 82.7017 210.354 82.7017 210.471L82.7173 214.364C82.7173 214.488 82.569 214.581 82.3896 214.605Z"
                fill="#00BDD3" />
            <path
                d="M169.632 220.821L168.11 221.676L168.103 221.683L165.489 223.152L163.14 224.465L163.132 224.473L160.721 225.825V225.833L159.801 226.353C159.801 226.353 159.59 226.206 159.223 225.934C159.083 225.833 158.919 225.716 158.732 225.576C158.162 225.149 157.358 224.551 156.43 223.812C156.43 223.812 156.43 223.812 156.43 223.805C151.576 219.989 142.939 212.476 140.372 205.653C138.71 207.627 136.72 210.098 134.442 212.833C124.633 224.621 109.379 241.257 91.0503 243.425C90.6758 243.479 90.3091 243.51 89.9267 243.541C83.8016 244.07 78.9716 243.456 75.2107 242.081C65.6991 238.615 63.0462 230.285 63.7016 223.206V223.183C63.7562 219.873 64.4117 213.967 64.4117 213.967L99.1106 214.006C104.003 208.093 113.811 198.831 123.845 192.988C124.079 192.84 124.321 192.7 124.563 192.576C124.86 192.397 125.164 192.242 125.461 192.078C128.722 190.299 131.984 188.924 135.074 188.178C135.76 188.015 136.439 187.875 137.11 187.774C137.812 187.665 138.507 187.603 139.186 187.572V187.579C143.937 187.362 148.065 189.126 150.866 193.85L169.125 220.083L169.632 220.821Z"
                fill="#00BDD3" />
            <path d="M150.906 184.915L112.563 186.492L113.687 162.194L152.029 160.617L150.906 184.915Z"
                fill="#00BDD3" />
            <path
                d="M150.461 186.834L112.673 188.388C111.604 188.435 110.769 187.595 110.823 186.531L111.939 162.388C111.986 161.316 112.899 160.415 113.968 160.368L151.757 158.814C152.826 158.767 153.661 159.599 153.606 160.671L152.49 184.814C152.443 185.886 151.53 186.787 150.461 186.834Z"
                fill="#0E1F3D" />
            <path d="M150.906 184.915L112.563 186.492L113.687 162.194L152.029 160.617L150.906 184.915Z"
                fill="#00BDD3" />
            <path opacity="0.9" d="M150.906 184.915L112.563 186.492L113.687 162.194L152.029 160.617L150.906 184.915Z"
                fill="white" />
            <path opacity="0.1" d="M127.295 159.824L120.959 188.03L123.479 187.929L129.729 159.723L127.295 159.824Z"
                fill="white" />
            <path opacity="0.1" d="M131.18 159.668L124.844 187.875L129.846 187.665L136.096 159.466L131.18 159.668Z"
                fill="white" />
            <path
                d="M138.46 187.137L151.225 186.779C151.444 188.256 150.812 188.807 150 188.831L145.919 188.932L143.196 188.994L138.959 189.111L112.672 189.872L112.461 188.03L138.46 187.137Z"
                fill="#00BDD3" />
            <path
                d="M138.46 187.136L151.225 186.779C151.444 188.255 150.812 188.807 150 188.83L145.919 188.931L143.196 188.993L138.959 189.11L106.422 190.105C106.047 190.112 105.704 189.91 105.54 189.568C105.251 188.962 105.681 188.248 106.359 188.224L138.46 187.136Z"
                fill="#00BDD3" />
            <path opacity="0.2"
                d="M138.46 187.136L151.225 186.779C151.444 188.255 150.812 188.807 150 188.83L145.919 188.931L143.196 188.993L138.959 189.11L106.422 190.105C106.047 190.112 105.704 189.91 105.54 189.568C105.251 188.962 105.681 188.248 106.359 188.224L138.46 187.136Z"
                fill="black" />
            <path opacity="0.2"
                d="M151.226 186.779L151.304 187.292C151.421 188.084 150.812 188.807 150.001 188.83L145.92 188.931L138.343 189.203L138.468 187.136L151.226 186.779Z"
                fill="black" />
            <path opacity="0.2"
                d="M85.1046 171.347C85.1046 171.347 83.3021 175.007 88.5066 184.673L90.6835 188.613C91.4014 189.911 96.1767 187.261 97.5968 184.829C97.5968 184.829 88.4754 179.374 85.1046 171.347Z"
                fill="black" />
            <path
                d="M129.244 182.613L132.872 181.549L132.287 187.136C132.287 187.136 127.223 190.508 125.467 187.283L126.17 185.481C126.716 184.113 127.839 183.064 129.244 182.613Z"
                fill="#F6B69E" />
            <path
                d="M137.039 183.748L136.586 185.761C136.454 186.383 135.923 186.841 135.283 186.895L132.264 187.129L132.849 181.542L135.814 182.008C136.602 182.109 137.164 182.832 137.055 183.616C137.055 183.663 137.047 183.702 137.039 183.748Z"
                fill="#F6B69E" />
            <path
                d="M99.0321 192.063C101.56 195.482 105.118 198.333 109.308 199.149C114.24 200.113 123.728 193.166 128.175 188.667C127.949 186.771 128.082 185.745 126.178 185.481C126.178 185.481 121.286 189.056 112.047 191.2C109.067 191.892 107.077 188.854 104.471 184.432C103.175 182.225 98.9775 173.188 97.3936 171.176C94.8577 167.944 87.6245 170.259 90.4959 178.037C91.7053 181.309 96.9644 189.265 99.0321 192.063Z"
                fill="#F6B69E" />
            <path
                d="M96.3329 165.885C101.467 170.578 103.964 178.877 103.964 178.877L91.979 186.15C91.979 186.15 83.2165 173.904 84.777 169.638C86.0098 166.328 88.2961 164.152 91.3001 163.965C93.165 163.857 94.9596 164.626 96.3329 165.885Z"
                fill="#00BDD3" />
            <path
                d="M68.8518 215.079L67.9467 215.102C67.7672 215.079 67.6268 215.017 67.6346 214.9L67.9623 211.023C67.9779 210.906 68.1262 210.813 68.3056 210.805L69.2107 210.782C69.3902 210.805 69.5307 210.875 69.5229 210.984L69.1951 214.869C69.1873 214.978 69.0313 215.094 68.8518 215.079Z"
                fill="#00BDD3" />
            <path d="M158.326 228.001L169.999 222.189L169 218.055L155.688 224.108L158.326 228.001Z" fill="#00BDD3" />
            <path opacity="0.5" d="M158.326 228.001L169.999 222.189L169 218.055L155.688 224.108L158.326 228.001Z"
                fill="white" />
            <path
                d="M176.826 232.546L168.773 234.979C168.453 235.064 168.25 235.367 168.289 235.693L169.257 242.966C169.382 243.681 170.061 244.171 170.779 244.047C170.825 244.039 170.872 244.031 170.919 244.015C184.371 241.785 188.811 239.33 190.254 238.84C194.382 237.45 192.736 234.411 191.269 234.505C184.683 234.909 182.631 234.155 180.017 232.974C178.62 232.484 177.309 232.407 176.826 232.546Z"
                fill="#0E1F3D" />
            <path
                d="M68.5471 136.668C66.1282 137.049 63.7328 135.199 62.9759 132.884C62.219 130.568 62.8433 127.981 64.0839 125.875C64.9968 124.321 70.9816 120.638 73.2053 124.787C77.6217 133.047 68.5471 136.668 68.5471 136.668Z"
                fill="#0E1F3D" />
            <path d="M150.562 168.946L126.958 169.948L127.068 167.617L150.671 166.615L150.562 168.946Z"
                fill="#00BDD3" />
            <g opacity="0.7">
                <path opacity="0.7"
                    d="M150.562 168.946L126.958 169.948L127.068 167.617L150.671 166.615L150.562 168.946Z"
                    fill="white" />
            </g>
            <path d="M150.422 172.186L126.818 173.181L126.92 170.85L150.523 169.855L150.422 172.186Z" fill="#00BDD3" />
            <g opacity="0.7">
                <path opacity="0.7" d="M150.422 172.186L126.818 173.181L126.92 170.85L150.523 169.855L150.422 172.186Z"
                    fill="white" />
            </g>
            <path d="M150.274 175.419L126.67 176.421L126.78 174.09L150.383 173.088L150.274 175.419Z" fill="#00BDD3" />
            <g opacity="0.7">
                <path opacity="0.7" d="M150.274 175.419L126.67 176.421L126.78 174.09L150.383 173.088L150.274 175.419Z"
                    fill="white" />
            </g>
            <path d="M150.126 178.659L126.522 179.654L126.632 177.323L150.235 176.328L150.126 178.659Z"
                fill="#00BDD3" />
            <g opacity="0.7">
                <path opacity="0.7"
                    d="M150.126 178.659L126.522 179.654L126.632 177.323L150.235 176.328L150.126 178.659Z"
                    fill="white" />
            </g>
            <path d="M149.985 181.892L126.381 182.895L126.483 180.564L150.086 179.561L149.985 181.892Z"
                fill="#00BDD3" />
            <g opacity="0.7">
                <path opacity="0.7"
                    d="M149.985 181.892L126.381 182.895L126.483 180.564L150.086 179.561L149.985 181.892Z"
                    fill="white" />
            </g>
            <path d="M117.432 171.25L115.538 171.332L115.571 172.108L117.466 172.026L117.432 171.25Z" fill="#00BDD3" />
            <g opacity="0.5">
                <path opacity="0.5" d="M117.432 171.25L115.538 171.332L115.571 172.108L117.466 172.026L117.432 171.25Z"
                    fill="white" />
            </g>
            <path d="M117.347 173.495L115.452 173.576L115.486 174.353L117.38 174.271L117.347 173.495Z" fill="#00BDD3" />
            <g opacity="0.5">
                <path opacity="0.5" d="M117.347 173.495L115.452 173.576L115.486 174.353L117.38 174.271L117.347 173.495Z"
                    fill="white" />
            </g>
            <path d="M117.251 175.733L115.357 175.815L115.39 176.591L117.285 176.51L117.251 175.733Z" fill="#00BDD3" />
            <g opacity="0.5">
                <path opacity="0.5" d="M117.251 175.733L115.357 175.815L115.39 176.591L117.285 176.51L117.251 175.733Z"
                    fill="white" />
            </g>
            <path d="M117.166 177.979L115.272 178.061L115.305 178.837L117.2 178.755L117.166 177.979Z" fill="#00BDD3" />
            <g opacity="0.5">
                <path opacity="0.5" d="M117.166 177.979L115.272 178.061L115.305 178.837L117.2 178.755L117.166 177.979Z"
                    fill="white" />
            </g>
            <path d="M117.073 180.217L115.179 180.298L115.212 181.075L117.106 180.993L117.073 180.217Z"
                fill="#00BDD3" />
            <g opacity="0.5">
                <path opacity="0.5"
                    d="M115.208 181.084L115.278 180.299L117.166 180.221L117.096 180.998L115.208 181.084Z"
                    fill="white" />
            </g>
            <path d="M116.982 182.456L115.088 182.536L115.121 183.313L117.015 183.233L116.982 182.456Z"
                fill="#00BDD3" />
            <g opacity="0.5">
                <path opacity="0.5"
                    d="M116.982 182.456L115.088 182.536L115.121 183.313L117.015 183.233L116.982 182.456Z"
                    fill="white" />
            </g>
            <path
                d="M119.397 169.109L115.48 170.562L115.519 169.537L117.689 169.187L115.543 169.039L115.582 168.014L119.397 169.109Z"
                fill="#00BDD3" />
            <path d="M143.313 165.402L126.958 166.094L127.037 164.478L143.391 163.786L143.313 165.402Z"
                fill="#00BDD3" />
            <g opacity="0.7">
                <path opacity="0.7"
                    d="M143.313 165.402L126.958 166.094L127.037 164.478L143.391 163.786L143.313 165.402Z"
                    fill="white" />
            </g>
            <path d="M121.247 166.242L118.852 166.343L119.819 165.729L120.084 165.978L120.373 165.721L121.247 166.242Z"
                fill="#00BDD3" />
            <path d="M119.725 165.658L118.758 166.272L118.828 164.85L119.725 165.658Z" fill="#00BDD3" />
            <path d="M121.403 164.804L121.325 166.156L120.443 165.643L121.403 164.804Z" fill="#00BDD3" />
            <path d="M120.118 165.397L120.064 165.454L120.07 165.459L120.124 165.403L120.118 165.397Z" fill="white" />
            <path d="M120.072 165.42L120.066 165.425L120.119 165.482L120.125 165.476L120.072 165.42Z" fill="white" />
            <path
                d="M121.402 164.672L120.372 165.604L120.083 165.852L119.818 165.612L118.921 164.804L118.851 164.734L121.402 164.672Z"
                fill="#00BDD3" />
            <path d="M117.44 164.921L115.546 165.002L115.556 165.234L117.45 165.154L117.44 164.921Z" fill="#00BDD3" />
            <path d="M117.442 165.51L115.548 165.591L115.558 165.824L117.452 165.743L117.442 165.51Z" fill="#00BDD3" />
            <path d="M117.44 166.111L115.546 166.192L115.556 166.424L117.45 166.344L117.44 166.111Z" fill="#00BDD3" />
            <path
                d="M227.365 48.0785H215.997C214.967 48.0785 214.132 47.2471 214.132 46.2214C214.132 45.1957 214.967 44.3643 215.997 44.3643H227.365C228.395 44.3643 229.23 45.1957 229.23 46.2214C229.23 47.2471 228.395 48.0785 227.365 48.0785Z"
                fill="#00BDD3" />
            <g opacity="0.7">
                <path opacity="0.7"
                    d="M227.365 48.0785H215.997C214.967 48.0785 214.132 47.2471 214.132 46.2214C214.132 45.1957 214.967 44.3643 215.997 44.3643H227.365C228.395 44.3643 229.23 45.1957 229.23 46.2214C229.23 47.2471 228.395 48.0785 227.365 48.0785Z"
                    fill="white" />
            </g>
            <path
                d="M269.072 86.2382L225.485 166.117C224.923 167.143 223.628 167.524 222.598 166.964L148.433 126.83C147.403 126.271 147.021 124.981 147.582 123.955L204.269 20.0582C204.831 19.0325 206.127 18.6518 207.157 19.2112L257.133 46.252L269.072 86.2382Z"
                fill="#00BDD3" />
            <g opacity="0.2">
                <path opacity="0.2"
                    d="M269.072 86.2382L225.485 166.117C224.923 167.143 223.628 167.524 222.598 166.964L148.433 126.83C147.403 126.271 147.021 124.981 147.582 123.955L204.269 20.0582C204.831 19.0325 206.127 18.6518 207.157 19.2112L257.133 46.252L269.072 86.2382Z"
                    fill="white" />
            </g>
            <path d="M244.619 104.167L189.228 74.4083L187.375 77.8276L242.766 107.586L244.619 104.167Z"
                fill="#00BDD3" />
            <path d="M237.049 118.138L181.658 88.3795L179.806 91.7988L235.197 121.557L237.049 118.138Z"
                fill="#00BDD3" />
            <path d="M229.482 132.109L174.091 102.351L172.239 105.77L227.63 135.528L229.482 132.109Z" fill="#00BDD3" />
            <path
                d="M257.196 46.2208L244.056 70.3166C243.494 71.3423 243.877 72.6322 244.907 73.1917L269.025 86.2458L257.196 46.2208Z"
                fill="#00BDD3" />
            <path opacity="0.7"
                d="M257.196 46.2208L244.056 70.3166C243.494 71.3423 243.877 72.6322 244.907 73.1917L269.025 86.2458L257.196 46.2208Z"
                fill="white" />
            <path
                d="M280.432 83.5492L236.846 163.428C236.284 164.454 234.989 164.835 233.959 164.275L159.793 124.141C158.763 123.582 158.381 122.292 158.943 121.266L215.63 17.3692C216.192 16.3436 217.487 15.9628 218.517 16.5223L268.494 43.5631L280.432 83.5492Z"
                fill="#00BDD3" />
            <g opacity="0.5">
                <path opacity="0.5"
                    d="M280.432 83.5492L236.846 163.428C236.284 164.454 234.989 164.835 233.959 164.275L159.793 124.141C158.763 123.582 158.381 122.292 158.943 121.266L215.63 17.3692C216.192 16.3436 217.487 15.9628 218.517 16.5223L268.494 43.5631L280.432 83.5492Z"
                    fill="white" />
            </g>
            <path
                d="M254.504 100.683L202.069 72.5158C201.25 72.0806 200.235 72.3837 199.791 73.1918L199.533 73.6658C199.096 74.4817 199.4 75.4918 200.212 75.9347L252.647 104.102C253.466 104.537 254.48 104.234 254.925 103.426L255.182 102.952C255.627 102.136 255.323 101.118 254.504 100.683Z"
                fill="#00BDD3" />
            <path
                d="M246.935 114.654L194.5 86.4865C193.681 86.0513 192.667 86.3544 192.222 87.1625L191.964 87.6365C191.527 88.4524 191.832 89.4625 192.643 89.9054L245.078 118.073C245.897 118.508 246.911 118.205 247.356 117.397L247.614 116.923C248.058 116.107 247.754 115.097 246.935 114.654Z"
                fill="#00BDD3" />
            <path
                d="M239.366 128.625L186.932 100.458C186.113 100.022 185.098 100.325 184.653 101.134L184.396 101.608C183.959 102.423 184.263 103.434 185.075 103.877L237.509 132.044C238.329 132.479 239.343 132.176 239.788 131.368L240.045 130.894C240.49 130.078 240.186 129.068 239.366 128.625Z"
                fill="#00BDD3" />
            <path
                d="M268.565 43.5322L255.417 67.628C254.855 68.6537 255.237 69.9436 256.267 70.5031L280.386 83.5572L268.565 43.5322Z"
                fill="#00BDD3" />
            <path opacity="0.7"
                d="M268.565 43.5322L255.417 67.628C254.855 68.6537 255.237 69.9436 256.267 70.5031L280.386 83.5572L268.565 43.5322Z"
                fill="white" />
            <path
                d="M265.552 6.91113L269.219 23.1278C255.331 26.9275 242.869 40.6111 233.904 53.5487C230.369 58.6538 227.373 64.5826 225.134 70.8533C225.134 70.8533 253.138 45.623 268.58 44.1466L267.846 70.9543C267.846 70.9543 283.857 39.8962 314.959 28.5282C314.951 28.5204 288.906 9.84055 265.552 6.91113Z"
                fill="#F4E041" />
            <path
                d="M76.616 184.083L83.6931 264.638H72.2854L64.6699 177.952H69.8978C73.4012 177.952 76.3117 180.61 76.616 184.083Z"
                fill="#00BDD3" />
            <path opacity="0.2"
                d="M76.6852 184.806L83.6999 264.638H72.2923L64.6768 177.952H69.1712C73.0803 177.952 76.3419 180.928 76.6852 184.806Z"
                fill="black" />
            <path
                d="M69.2032 183.197L76.3583 264.638H8.44297L1.37366 184.2C1.07715 180.843 3.7379 177.952 7.1243 177.952H63.4447C66.4488 177.952 68.9457 180.229 69.2032 183.197Z"
                fill="#00BDD3" />
            <path opacity="0.2"
                d="M69.2803 184.083L76.3574 264.638H8.44207L1.46639 185.256C1.12307 181.332 4.22857 177.952 8.18458 177.952H62.5543C66.0577 177.952 68.976 180.61 69.2803 184.083Z"
                fill="white" />
            <path
                d="M188.727 264.638H8.75586L6.79736 242.298H179.559C183.546 242.298 187.057 245.515 187.4 249.486L188.727 264.638Z"
                fill="#00BDD3" />
            <path opacity="0.2"
                d="M188.727 264.638H8.75586L6.79736 242.298H179.559C183.546 242.298 187.057 245.515 187.4 249.486L188.727 264.638Z"
                fill="white" />
            <path
                d="M196.981 273.193H6.64042C4.17475 273.193 2.16943 271.204 2.16943 268.741C2.16943 266.286 4.16695 264.289 6.64042 264.289H196.981C199.447 264.289 201.452 266.278 201.452 268.741C201.452 271.196 199.447 273.193 196.981 273.193Z"
                fill="#00BDD3" />
            <path opacity="0.2"
                d="M196.982 273.193H86.4866C84.0209 273.193 82.0156 271.204 82.0156 268.741C82.0156 266.286 84.0131 264.289 86.4866 264.289H196.982C199.447 264.289 201.453 266.278 201.453 268.741C201.453 271.196 199.447 273.193 196.982 273.193Z"
                fill="black" />
            <path d="M9.1377 273.193L11.3927 280.839H15.9027L18.384 273.193H9.1377Z" fill="#263238" />
            <path opacity="0.5" d="M9.1377 273.193L11.3927 280.839H15.9027L18.384 273.193H9.1377Z" fill="white" />
            <path d="M73.7676 273.193L76.0226 280.839H80.5326L83.0139 273.193H73.7676Z" fill="#263238" />
            <path opacity="0.5" d="M73.7676 273.193L76.0226 280.839H80.5326L83.0139 273.193H73.7676Z" fill="white" />
            <path d="M123.238 273.193L125.493 280.839H130.003L132.484 273.193H123.238Z" fill="#263238" />
            <path opacity="0.5" d="M123.238 273.193L125.493 280.839H130.003L132.484 273.193H123.238Z" fill="white" />
            <path d="M187.868 273.193L190.123 280.839H194.633L197.114 273.193H187.868Z" fill="#263238" />
            <path opacity="0.5" d="M187.868 273.193L190.123 280.839H194.633L197.114 273.193H187.868Z" fill="white" />
            <path
                d="M261.432 150.254C261.432 167.469 247.468 181.425 230.242 181.425C213.017 181.425 199.053 167.469 199.053 150.254C199.053 133.038 213.017 119.082 230.242 119.082C247.468 119.082 261.432 133.038 261.432 150.254Z"
                fill="#EA5924" />
            <path
                d="M226.212 156.733L221.102 151.626C220.532 151.056 219.627 151.056 219.057 151.626C218.488 152.195 218.488 153.099 219.057 153.669L225.176 159.783C225.745 160.352 226.665 160.352 227.235 159.783L242.713 144.329C243.282 143.76 243.282 142.855 242.713 142.286C242.143 141.717 241.238 141.717 240.668 142.286L226.212 156.733Z"
                fill="white" />
        </symbol>
    </defs>
</svg>